<svg viewBox="0 0 934 792" role="img" lang="en" aria-labelledby="archify-diagram-title archify-diagram-description" data-preset="classic" data-quality-profile="showcase">
        <title id="archify-diagram-title">Bốn Lớp, Một Bộ Khung</title>
        <desc id="archify-diagram-description">An architecture diagram generated by Archify.</desc>
        <!-- Definitions -->
        <defs>
          <marker id="arrowhead" markerWidth="10" markerHeight="7" refX="9" refY="3.5" orient="auto">
            <polygon points="0 0, 10 3.5, 0 7" class="m-default" />
          </marker>
          <marker id="arrowhead-emphasis" markerWidth="10" markerHeight="7" refX="9" refY="3.5" orient="auto">
            <polygon points="0 0, 10 3.5, 0 7" class="m-emphasis" />
          </marker>
          <marker id="arrowhead-security" markerWidth="10" markerHeight="7" refX="9" refY="3.5" orient="auto">
            <polygon points="0 0, 10 3.5, 0 7" class="m-security" />
          </marker>
          <marker id="arrowhead-dashed" markerWidth="10" markerHeight="7" refX="9" refY="3.5" orient="auto">
            <polygon points="0 0, 10 3.5, 0 7" class="m-dashed" />
          </marker>
          <pattern id="grid" width="40" height="40" patternUnits="userSpaceOnUse">
            <path d="M 40 0 L 0 0 0 40" class="c-grid" stroke-width="0.5"/>
          </pattern>
        </defs>

        <!-- Background Grid -->
        <rect width="100%" height="100%" fill="url(#grid)" />

        <!-- Boundaries (behind everything) -->
        <rect data-graph-role="structural-frame" data-composition-frame-kind="region" data-composition-frame-id="0" data-composition-frame-label="RUNTIME" x="111" y="36" width="668" height="118" rx="12" class="c-region" stroke-width="1"/>

        <rect data-graph-role="structural-frame" data-composition-frame-kind="region" data-composition-frame-id="1" data-composition-frame-label="HARNESS" x="16" y="226" width="858" height="118" rx="12" class="c-region" stroke-width="1"/>

        <rect data-graph-role="structural-frame" data-composition-frame-kind="region" data-composition-frame-id="2" data-composition-frame-label="COORDINATION" x="16" y="416" width="648" height="118" rx="12" class="c-region" stroke-width="1"/>

        <rect data-graph-role="structural-frame" data-composition-frame-kind="region" data-composition-frame-id="3" data-composition-frame-label="DỰ ÁN CỦA ANH EM" x="626" y="606" width="268" height="118" rx="12" class="c-region" stroke-width="1"/>

        <!-- Connection paths (before components for correct z-order) -->
        <path data-edge-from="runtime_claude" data-edge-to="roles" data-edge-key="0" data-composition-points="225,134;225,192;116,192;116,250" d="M 225 134 L 225 184 Q 225 192 217 192 L 124 192 Q 116 192 116 200 L 116 250" class="a-default" stroke-width="1.5" marker-end="url(#arrowhead)"/>
        <path data-edge-from="runtime_codex" data-edge-to="roles" data-edge-key="1" data-composition-points="445,134;445,192;130,192;130,250" d="M 445 134 L 445 184 Q 445 192 437 192 L 138 192 Q 130 192 130 200 L 130 250" class="a-default" stroke-width="1.5" marker-end="url(#arrowhead)"/>
        <path data-edge-from="runtime_opencode" data-edge-to="roles" data-edge-key="2" data-composition-points="665,134;665,192;144,192;144,250" d="M 665 134 L 665 184 Q 665 192 657 192 L 152 192 Q 144 192 144 200 L 144 250" class="a-default" stroke-width="1.5" marker-end="url(#arrowhead)"/>
        <path data-edge-from="roles" data-edge-to="tracker" data-edge-label="Thomas hỏi frontier" data-edge-key="3" data-composition-points="130,324;130,440" d="M 130 324 L 130 440" class="a-emphasis" stroke-width="1.8" marker-end="url(#arrowhead-emphasis)"/>
        <path data-edge-from="roles" data-edge-to="worktrees" data-edge-label="Builder claim worktree" data-edge-key="4" data-composition-points="130,324;130,380;550,380;550,440" d="M 130 324 L 130 372 Q 130 380 138 380 L 542 380 Q 550 380 550 388 L 550 440" class="a-emphasis" stroke-width="1.8" marker-end="url(#arrowhead-emphasis)"/>
        <path data-edge-from="hooks" data-edge-to="project" data-edge-label="chặn lệnh nguy hiểm" data-edge-key="5" data-composition-points="760,324;760,630" d="M 760 324 L 760 630" class="a-security" stroke-width="1.5" marker-end="url(#arrowhead-security)"/>

        <!-- Components -->
        <g id="node-runtime_claude" data-node-id="runtime_claude" data-node-label="Claude Code" tabindex="0" role="button" aria-label="Focus Claude Code, runtime, RUNTIME" aria-pressed="false" data-node-kind="external" data-node-sublabel="runtime" data-node-context="RUNTIME">
          <title>Claude Code · runtime · RUNTIME</title>
          <rect x="135" y="60" width="180" height="74" rx="6" class="c-mask"/>
          <rect x="135" y="60" width="180" height="74" rx="6" class="c-external" stroke-width="1.5"/>
          <g aria-hidden="true" data-semantic-sigil="external" class="semantic-sigil s-external" transform="translate(141 66) scale(0.6875)">
            <rect x="2.5" y="5" width="8.5" height="8" rx="1.5"/>
            <path d="M8 2.5h5.5V8M13.5 2.5 7.5 8.5"/>
          </g>
          <text data-node-label="" data-detail-anchor="" x="225" y="95" class="t-primary" font-size="11" font-weight="600" text-anchor="middle">Claude Code</text>
        <text data-detail="context" x="225" y="111" class="t-muted" font-size="9" text-anchor="middle">runtime</text>
        </g>

        <g id="node-runtime_codex" data-node-id="runtime_codex" data-node-label="Codex" tabindex="0" role="button" aria-label="Focus Codex, runtime, RUNTIME" aria-pressed="false" data-node-kind="external" data-node-sublabel="runtime" data-node-context="RUNTIME">
          <title>Codex · runtime · RUNTIME</title>
          <rect x="355" y="60" width="180" height="74" rx="6" class="c-mask"/>
          <rect x="355" y="60" width="180" height="74" rx="6" class="c-external" stroke-width="1.5"/>
          <g aria-hidden="true" data-semantic-sigil="external" class="semantic-sigil s-external" transform="translate(361 66) scale(0.6875)">
            <rect x="2.5" y="5" width="8.5" height="8" rx="1.5"/>
            <path d="M8 2.5h5.5V8M13.5 2.5 7.5 8.5"/>
          </g>
          <text data-node-label="" data-detail-anchor="" x="445" y="95" class="t-primary" font-size="11" font-weight="600" text-anchor="middle">Codex</text>
        <text data-detail="context" x="445" y="111" class="t-muted" font-size="9" text-anchor="middle">runtime</text>
        </g>

        <g id="node-runtime_opencode" data-node-id="runtime_opencode" data-node-label="OpenCode" tabindex="0" role="button" aria-label="Focus OpenCode, runtime, RUNTIME" aria-pressed="false" data-node-kind="external" data-node-sublabel="runtime" data-node-context="RUNTIME">
          <title>OpenCode · runtime · RUNTIME</title>
          <rect x="575" y="60" width="180" height="74" rx="6" class="c-mask"/>
          <rect x="575" y="60" width="180" height="74" rx="6" class="c-external" stroke-width="1.5"/>
          <g aria-hidden="true" data-semantic-sigil="external" class="semantic-sigil s-external" transform="translate(581 66) scale(0.6875)">
            <rect x="2.5" y="5" width="8.5" height="8" rx="1.5"/>
            <path d="M8 2.5h5.5V8M13.5 2.5 7.5 8.5"/>
          </g>
          <text data-node-label="" data-detail-anchor="" x="665" y="95" class="t-primary" font-size="11" font-weight="600" text-anchor="middle">OpenCode</text>
        <text data-detail="context" x="665" y="111" class="t-muted" font-size="9" text-anchor="middle">runtime</text>
        </g>

        <g id="node-roles" data-node-id="roles" data-node-label="Vai" tabindex="0" role="button" aria-label="Focus Vai, Thomas · Shaper · Builder · Rin · QA, HARNESS" aria-pressed="false" data-node-kind="backend" data-node-sublabel="Thomas · Shaper · Builder · Rin · QA" data-node-context="HARNESS">
          <title>Vai · Thomas · Shaper · Builder · Rin · QA · HARNESS</title>
          <rect x="40" y="250" width="180" height="74" rx="6" class="c-mask"/>
          <rect x="40" y="250" width="180" height="74" rx="6" class="c-backend" stroke-width="1.5"/>
          <g aria-hidden="true" data-semantic-sigil="backend" class="semantic-sigil s-backend" transform="translate(46 256) scale(0.6875)">
            <path d="M6 3 3 8l3 5M10 3l3 5-3 5"/>
          </g>
          <text data-node-label="" data-detail-anchor="" x="130" y="285" class="t-primary" font-size="11" font-weight="600" text-anchor="middle">Vai</text>
        <text data-detail="context" x="130" y="301" class="t-muted" font-size="7.9" text-anchor="middle">Thomas · Shaper · Builder · Rin · QA</text>
        </g>

        <g id="node-skills" data-node-id="skills" data-node-label="Skill" tabindex="0" role="button" aria-label="Focus Skill, 16 skill đóng gói, HARNESS" aria-pressed="false" data-node-kind="backend" data-node-sublabel="16 skill đóng gói" data-node-context="HARNESS">
          <title>Skill · 16 skill đóng gói · HARNESS</title>
          <rect x="250" y="250" width="180" height="74" rx="6" class="c-mask"/>
          <rect x="250" y="250" width="180" height="74" rx="6" class="c-backend" stroke-width="1.5"/>
          <g aria-hidden="true" data-semantic-sigil="backend" class="semantic-sigil s-backend" transform="translate(256 256) scale(0.6875)">
            <path d="M6 3 3 8l3 5M10 3l3 5-3 5"/>
          </g>
          <text data-node-label="" data-detail-anchor="" x="340" y="285" class="t-primary" font-size="11" font-weight="600" text-anchor="middle">Skill</text>
        <text data-detail="context" x="340" y="301" class="t-muted" font-size="9" text-anchor="middle">16 skill đóng gói</text>
        </g>

        <g id="node-ledger" data-node-id="ledger" data-node-label="Bộ Nhớ / Ledger" tabindex="0" role="button" aria-label="Focus Bộ Nhớ / Ledger, cái thật sự đã xảy ra, HARNESS" aria-pressed="false" data-node-kind="database" data-node-sublabel="cái thật sự đã xảy ra" data-node-context="HARNESS">
          <title>Bộ Nhớ / Ledger · cái thật sự đã xảy ra · HARNESS</title>
          <rect x="460" y="250" width="180" height="74" rx="6" class="c-mask"/>
          <rect x="460" y="250" width="180" height="74" rx="6" class="c-database" stroke-width="1.5"/>
          <g aria-hidden="true" data-semantic-sigil="database" class="semantic-sigil s-database" transform="translate(466 256) scale(0.6875)">
            <ellipse cx="8" cy="4" rx="5" ry="2"/>
            <path d="M3 4v8c0 1.1 2.2 2 5 2s5-.9 5-2V4M3 8c0 1.1 2.2 2 5 2s5-.9 5-2"/>
          </g>
          <text data-node-label="" data-detail-anchor="" x="550" y="285" class="t-primary" font-size="11" font-weight="600" text-anchor="middle">Bộ Nhớ / Ledger</text>
        <text data-detail="context" x="550" y="301" class="t-muted" font-size="9" text-anchor="middle">cái thật sự đã xảy ra</text>
        </g>

        <g id="node-hooks" data-node-id="hooks" data-node-label="Hook" tabindex="0" role="button" aria-label="Focus Hook, 4 hook vòng đời, HARNESS" aria-pressed="false" data-node-kind="security" data-node-sublabel="4 hook vòng đời" data-node-context="HARNESS">
          <title>Hook · 4 hook vòng đời · HARNESS</title>
          <rect x="670" y="250" width="180" height="74" rx="6" class="c-mask"/>
          <rect x="670" y="250" width="180" height="74" rx="6" class="c-security" stroke-width="1.5"/>
          <g aria-hidden="true" data-semantic-sigil="security" class="semantic-sigil s-security" transform="translate(676 256) scale(0.6875)">
            <path d="M8 2.2 13 4v3.5c0 3.1-1.8 5.4-5 6.5-3.2-1.1-5-3.4-5-6.5V4Z"/>
            <path d="m5.8 8 1.5 1.5 3-3"/>
          </g>
          <text data-node-label="" data-detail-anchor="" x="760" y="285" class="t-primary" font-size="11" font-weight="600" text-anchor="middle">Hook</text>
        <text data-detail="context" x="760" y="301" class="t-muted" font-size="9" text-anchor="middle">4 hook vòng đời</text>
        </g>

        <g id="node-tracker" data-node-id="tracker" data-node-label="Tracker" tabindex="0" role="button" aria-label="Focus Tracker, GitHub · Jira · Linear, COORDINATION" aria-pressed="false" data-node-kind="external" data-node-sublabel="GitHub · Jira · Linear" data-node-context="COORDINATION">
          <title>Tracker · GitHub · Jira · Linear · COORDINATION</title>
          <rect x="40" y="440" width="180" height="74" rx="6" class="c-mask"/>
          <rect x="40" y="440" width="180" height="74" rx="6" class="c-external" stroke-width="1.5"/>
          <g aria-hidden="true" data-semantic-sigil="external" class="semantic-sigil s-external" transform="translate(46 446) scale(0.6875)">
            <rect x="2.5" y="5" width="8.5" height="8" rx="1.5"/>
            <path d="M8 2.5h5.5V8M13.5 2.5 7.5 8.5"/>
          </g>
          <text data-node-label="" data-detail-anchor="" x="130" y="475" class="t-primary" font-size="11" font-weight="600" text-anchor="middle">Tracker</text>
        <text data-detail="context" x="130" y="491" class="t-muted" font-size="9" text-anchor="middle">GitHub · Jira · Linear</text>
        </g>

        <g id="node-herdr" data-node-id="herdr" data-node-label="herdr" tabindex="0" role="button" aria-label="Focus herdr, mỗi agent một pane, COORDINATION" aria-pressed="false" data-node-kind="backend" data-node-sublabel="mỗi agent một pane" data-node-context="COORDINATION">
          <title>herdr · mỗi agent một pane · COORDINATION</title>
          <rect x="250" y="440" width="180" height="74" rx="6" class="c-mask"/>
          <rect x="250" y="440" width="180" height="74" rx="6" class="c-backend" stroke-width="1.5"/>
          <g aria-hidden="true" data-semantic-sigil="backend" class="semantic-sigil s-backend" transform="translate(256 446) scale(0.6875)">
            <path d="M6 3 3 8l3 5M10 3l3 5-3 5"/>
          </g>
          <text data-node-label="" data-detail-anchor="" x="340" y="475" class="t-primary" font-size="11" font-weight="600" text-anchor="middle">herdr</text>
        <text data-detail="context" x="340" y="491" class="t-muted" font-size="9" text-anchor="middle">mỗi agent một pane</text>
        </g>

        <g id="node-worktrees" data-node-id="worktrees" data-node-label="git worktree" tabindex="0" role="button" aria-label="Focus git worktree, mỗi ticket một checkout, COORDINATION" aria-pressed="false" data-node-kind="backend" data-node-sublabel="mỗi ticket một checkout" data-node-context="COORDINATION">
          <title>git worktree · mỗi ticket một checkout · COORDINATION</title>
          <rect x="460" y="440" width="180" height="74" rx="6" class="c-mask"/>
          <rect x="460" y="440" width="180" height="74" rx="6" class="c-backend" stroke-width="1.5"/>
          <g aria-hidden="true" data-semantic-sigil="backend" class="semantic-sigil s-backend" transform="translate(466 446) scale(0.6875)">
            <path d="M6 3 3 8l3 5M10 3l3 5-3 5"/>
          </g>
          <text data-node-label="" data-detail-anchor="" x="550" y="475" class="t-primary" font-size="11" font-weight="600" text-anchor="middle">git worktree</text>
        <text data-detail="context" x="550" y="491" class="t-muted" font-size="9" text-anchor="middle">mỗi ticket một checkout</text>
        </g>

        <g id="node-project" data-node-id="project" data-node-label="Dự Án Của Anh Em" tabindex="0" role="button" aria-label="Focus Dự Án Của Anh Em, repo · CONTEXT.md · ADR, DỰ ÁN CỦA ANH EM" aria-pressed="false" data-node-kind="frontend" data-node-sublabel="repo · CONTEXT.md · ADR" data-node-context="DỰ ÁN CỦA ANH EM">
          <title>Dự Án Của Anh Em · repo · CONTEXT.md · ADR · DỰ ÁN CỦA ANH EM</title>
          <rect x="650" y="630" width="220" height="74" rx="6" class="c-mask"/>
          <rect x="650" y="630" width="220" height="74" rx="6" class="c-frontend" stroke-width="1.5"/>
          <g aria-hidden="true" data-semantic-sigil="frontend" class="semantic-sigil s-frontend" transform="translate(656 636) scale(0.6875)">
            <rect x="2" y="3" width="12" height="10" rx="2"/>
            <path d="M2 6.5h12"/>
            <circle cx="4.1" cy="4.8" r=".7" class="sigil-fill"/>
            <circle cx="6.3" cy="4.8" r=".7" class="sigil-fill"/>
          </g>
          <text data-node-label="" data-detail-anchor="" x="760" y="665" class="t-primary" font-size="11" font-weight="600" text-anchor="middle">Dự Án Của Anh Em</text>
        <text data-detail="context" x="760" y="681" class="t-muted" font-size="9" text-anchor="middle">repo · CONTEXT.md · ADR</text>
        </g>

        <!-- Connection labels -->



        <g data-detail="context" data-edge-from="roles" data-edge-to="tracker" data-edge-label="Thomas hỏi frontier" data-edge-key="3">
          <rect x="99.4" y="390" width="101.2" height="14" rx="3" class="c-mask"/>
          <text x="150" y="400" class="t-backend" font-size="8" text-anchor="middle">Thomas hỏi frontier</text>
        </g>
        <g data-detail="context" data-edge-from="roles" data-edge-to="worktrees" data-edge-label="Builder claim worktree" data-edge-key="4">
          <rect x="282.2" y="395" width="115.6" height="14" rx="3" class="c-mask"/>
          <text x="340" y="405" class="t-backend" font-size="8" text-anchor="middle">Builder claim worktree</text>
        </g>
        <g data-detail="context" data-edge-from="hooks" data-edge-to="project" data-edge-label="chặn lệnh nguy hiểm" data-edge-key="5">
          <rect x="709.4" y="328" width="101.2" height="14" rx="3" class="c-mask"/>
          <text x="760" y="338" class="t-security" font-size="8" text-anchor="middle">chặn lệnh nguy hiểm</text>
        </g>

        <!-- Boundary labels (foreground masks keep routes out of titles) -->
        <g data-graph-role="structural-frame-label" data-composition-frame-id="0" data-composition-frame-kind="region" data-composition-frame-label="RUNTIME">
          <rect data-graph-role="structural-frame-label-mask" x="115" y="40" width="47.8" height="16" rx="3" class="c-mask"/>
          <text data-boundary-label="" x="119" y="53" class="t-cloud" font-size="9" font-weight="600">RUNTIME</text>
        </g>

        <g data-graph-role="structural-frame-label" data-composition-frame-id="1" data-composition-frame-kind="region" data-composition-frame-label="HARNESS">
          <rect data-graph-role="structural-frame-label-mask" x="20" y="230" width="47.8" height="16" rx="3" class="c-mask"/>
          <text data-boundary-label="" x="24" y="243" class="t-cloud" font-size="9" font-weight="600">HARNESS</text>
        </g>

        <g data-graph-role="structural-frame-label" data-composition-frame-id="2" data-composition-frame-kind="region" data-composition-frame-label="COORDINATION">
          <rect data-graph-role="structural-frame-label-mask" x="20" y="420" width="74.8" height="16" rx="3" class="c-mask"/>
          <text data-boundary-label="" x="24" y="433" class="t-cloud" font-size="9" font-weight="600">COORDINATION</text>
        </g>

        <g data-graph-role="structural-frame-label" data-composition-frame-id="3" data-composition-frame-kind="region" data-composition-frame-label="DỰ ÁN CỦA ANH EM">
          <rect data-graph-role="structural-frame-label-mask" x="630" y="610" width="96.39999999999999" height="16" rx="3" class="c-mask"/>
          <text data-boundary-label="" x="634" y="623" class="t-cloud" font-size="9" font-weight="600">DỰ ÁN CỦA ANH EM</text>
        </g>

        <!-- Legend -->
        <g data-legend="" data-legend-bridge="">
          <text x="40" y="756" class="t-primary" font-size="12" font-weight="650">Legend</text>
          <g data-legend-semantic-kind="frontend" data-legend-kind="frontend" data-legend-label="Frontend" data-legend-x="40" data-legend-baseline="776" data-legend-width="83">
            <rect x="40" y="767" width="16" height="10" rx="2.5" class="c-frontend" stroke-width="1"/>
            <text x="62" y="776" class="t-muted" font-size="10" font-weight="500">Frontend</text>
          </g>
          <g data-legend-semantic-kind="backend" data-legend-kind="backend" data-legend-label="Backend" data-legend-x="145" data-legend-baseline="776" data-legend-width="78">
            <rect x="145" y="767" width="16" height="10" rx="2.5" class="c-backend" stroke-width="1"/>
            <text x="167" y="776" class="t-muted" font-size="10" font-weight="500">Backend</text>
          </g>
          <g data-legend-semantic-kind="database" data-legend-kind="database" data-legend-label="Database" data-legend-x="245" data-legend-baseline="776" data-legend-width="83">
            <rect x="245" y="767" width="16" height="10" rx="2.5" class="c-database" stroke-width="1"/>
            <text x="267" y="776" class="t-muted" font-size="10" font-weight="500">Database</text>
          </g>
          <g data-legend-semantic-kind="security" data-legend-kind="security" data-legend-label="Security" data-legend-x="350" data-legend-baseline="776" data-legend-width="83">
            <rect x="350" y="767" width="16" height="10" rx="2.5" class="c-security" stroke-width="1"/>
            <text x="372" y="776" class="t-muted" font-size="10" font-weight="500">Security</text>
          </g>
          <g data-legend-semantic-kind="external" data-legend-kind="external" data-legend-label="External" data-legend-x="455" data-legend-baseline="776" data-legend-width="83">
            <rect x="455" y="767" width="16" height="10" rx="2.5" class="c-external" stroke-width="1"/>
            <text x="477" y="776" class="t-muted" font-size="10" font-weight="500">External</text>
          </g>
        </g>
      </svg>